<?xml version="1.0" encoding="UTF-8" standalone="no"?>
<svg width="80px" height="12px" viewBox="0 0 80 12" version="1.1" xmlns="http://www.w3.org/2000/svg" xmlns:xlink="http://www.w3.org/1999/xlink">
    <!-- Generator: Sketch 42 (36781) - http://www.bohemiancoding.com/sketch -->
    <title>Group 15</title>
    <desc>Created with Sketch.</desc>
    <defs></defs>
    <g id="Page-1" stroke="none" stroke-width="1" fill="none" fill-rule="evenodd">
        <g id="Desktop-Copy-7" transform="translate(-64.000000, -79.000000)" fill="#4A4A4A">
            <g id="Group-15" transform="translate(64.000000, 79.000000)">
                <g id="Group-14" transform="translate(16.000000, 6.260870) scale(-1, 1) translate(-16.000000, -6.260870) translate(0.000000, 0.521739)">
                    <polygon id="Line" fill-rule="nonzero" points="0 6.7826087 26.5 6.7826087 26.5 5.2173913 0 5.2173913"></polygon>
                    <polygon id="Triangle-4" transform="translate(28.750000, 5.739130) rotate(90.000000) translate(-28.750000, -5.739130) " points="28.75 2.60869565 34 8.86956522 23.5 8.86956522"></polygon>
                </g>
                <path d="M51.554,11.4782609 L45.762,11.4782609 L45.762,0.34226087 L51.378,0.34226087 C53.41,0.34226087 54.45,1.6946087 54.45,3.18052174 C54.45,4.56626087 53.618,5.51791304 52.61,5.73495652 C53.762,5.9186087 54.658,7.0706087 54.658,8.45634783 C54.658,10.1426087 53.602,11.4782609 51.554,11.4782609 Z M50.882,4.7666087 C51.65,4.7666087 52.13,4.31582609 52.13,3.59791304 C52.13,2.9133913 51.65,2.42921739 50.882,2.42921739 L48.034,2.42921739 L48.034,4.7666087 L50.882,4.7666087 Z M50.978,9.39130435 C51.826,9.39130435 52.338,8.92382609 52.338,8.12243478 C52.338,7.42121739 51.858,6.85356522 50.978,6.85356522 L48.034,6.85356522 L48.034,9.39130435 L50.978,9.39130435 Z M62.818,11.4782609 L60.77,11.4782609 L60.77,10.6267826 C60.242,11.2946087 59.33,11.6786087 58.322,11.6786087 C57.09,11.6786087 55.65,10.8104348 55.65,9.00730435 C55.65,7.104 57.09,6.40278261 58.322,6.40278261 C59.362,6.40278261 60.258,6.7533913 60.77,7.38782609 L60.77,6.3693913 C60.77,5.55130435 60.098,5.01704348 59.074,5.01704348 C58.258,5.01704348 57.49,5.35095652 56.85,5.96869565 L56.05,4.48278261 C56.994,3.59791304 58.21,3.21391304 59.426,3.21391304 C61.202,3.21391304 62.818,3.94852174 62.818,6.26921739 L62.818,11.4782609 Z M59.138,10.2427826 C59.794,10.2427826 60.434,10.0090435 60.77,9.54156522 L60.77,8.53982609 C60.434,8.07234783 59.794,7.82191304 59.138,7.82191304 C58.338,7.82191304 57.682,8.27269565 57.682,9.04069565 C57.682,9.80869565 58.338,10.2427826 59.138,10.2427826 Z M68.226,11.6786087 C69.81,11.6786087 70.77,10.944 71.282,10.2093913 L69.954,8.90713043 C69.586,9.45808696 69.026,9.792 68.322,9.792 C67.09,9.792 66.226,8.84034783 66.226,7.43791304 C66.226,6.03547826 67.09,5.10052174 68.322,5.10052174 C69.026,5.10052174 69.586,5.40104348 69.954,5.96869565 L71.282,4.66643478 C70.77,3.93182609 69.81,3.21391304 68.226,3.21391304 C65.858,3.21391304 64.13,4.96695652 64.13,7.43791304 C64.13,9.92556522 65.858,11.6786087 68.226,11.6786087 Z M79.97,11.4782609 L76.818,7.0706087 L79.874,3.41426087 L77.378,3.41426087 L74.45,7.00382609 L74.45,0.34226087 L72.418,0.34226087 L72.418,11.4782609 L74.45,11.4782609 L74.45,9.408 L75.378,8.37286957 L77.426,11.4782609 L79.97,11.4782609 Z" id="Back"></path>
            </g>
        </g>
    </g>
</svg>