<?xml version="1.0" encoding="UTF-8" standalone="no"?>
<svg width="99px" height="78px" viewBox="0 0 99 78" version="1.1" xmlns="http://www.w3.org/2000/svg" xmlns:xlink="http://www.w3.org/1999/xlink">
    <!-- Generator: Sketch 42 (36781) - http://www.bohemiancoding.com/sketch -->
    <title>Group 29</title>
    <desc>Created with Sketch.</desc>
    <defs></defs>
    <g id="Page-1" stroke="none" stroke-width="1" fill="none" fill-rule="evenodd">
        <g id="Group-29">
            <path d="M83.9138274,11.4281735 C74.7457962,4.05668106 62.5834525,0 49.6222836,0 C36.6608583,0 24.4987709,4.05668106 15.3307397,11.4281735 C-2.38825846,25.6756167 -3.61905422,48.4820797 12.275413,63.8679908 C10.716217,66.3906363 8.21463296,69.3263706 4.50250579,70.7942378 C2.7179673,71.5029202 -0.27907697,74.0448069 0.0209180076,75.6198447 C0.320912985,77.1948825 3.84647447,77.4397328 5.8153375,77.6868852 C6.73772932,77.8027315 8.05056104,77.9179594 9.64974953,77.9179594 C13.9368975,77.9179594 20.2536664,77.109509 26.7137419,73.3669734 C33.9121409,76.4830734 41.7881058,78 49.6022873,78 C62.15302,78 74.5814679,74.0923525 83.9338237,66.572651 C93.1015985,59.2009524 98.14681,49.4226608 98.14681,39 C98.14681,28.5783699 93.0805768,18.7990476 83.9138274,11.4281735 Z" id="Path" fill="#00FF78"></path>
            <path d="M40.928,36 L40.928,25.328 L39.056,25.328 L39.056,29.68 L33.504,29.68 L33.504,25.328 L31.632,25.328 L31.632,36 L33.504,36 L33.504,31.328 L39.056,31.328 L39.056,36 L40.928,36 Z M45.822,36 L45.822,25.328 L43.95,25.328 L43.95,36 L45.822,36 Z M57.116,36 L54.94,36 L52.588,32.016 L50.716,32.016 L50.716,36 L48.844,36 L48.844,25.328 L53.532,25.328 C55.644,25.328 57.036,26.688 57.036,28.672 C57.036,30.56 55.788,31.6 54.492,31.808 L57.116,36 Z M53.292,30.368 C54.348,30.368 55.116,29.696 55.116,28.656 C55.116,27.632 54.348,26.976 53.292,26.976 L50.716,26.976 L50.716,30.368 L53.292,30.368 Z M66.97,36 L66.97,34.352 L61.53,34.352 L61.53,31.376 L66.858,31.376 L66.858,29.728 L61.53,29.728 L61.53,26.976 L66.97,26.976 L66.97,25.328 L59.658,25.328 L59.658,36 L66.97,36 Z M49.678,55 L49.678,44.328 L47.038,44.328 L44.142,51.656 L41.23,44.328 L38.59,44.328 L38.59,55 L40.462,55 L40.462,46.76 L43.742,55 L44.542,55 L47.806,46.76 L47.806,55 L49.678,55 Z M60.012,55 L60.012,53.352 L54.572,53.352 L54.572,50.376 L59.9,50.376 L59.9,48.728 L54.572,48.728 L54.572,45.976 L60.012,45.976 L60.012,44.328 L52.7,44.328 L52.7,55 L60.012,55 Z" id="HIRE-ME" fill="#040404"></path>
        </g>
    </g>
</svg>