<?xml version="1.0" encoding="UTF-8" standalone="no"?>
<svg width="50px" height="50px" viewBox="0 0 50 50" version="1.1" xmlns="http://www.w3.org/2000/svg" xmlns:xlink="http://www.w3.org/1999/xlink">
    <!-- Generator: Sketch 43.1 (39012) - http://www.bohemiancoding.com/sketch -->
    <title>list</title>
    <desc>Created with Sketch.</desc>
    <defs>
        <polygon id="path-1" points="0 49.9375 50 49.9375 50 0 0 0"></polygon>
    </defs>
    <g id="Page-1" stroke="none" stroke-width="1" fill="none" fill-rule="evenodd">
        <g id="list">
            <path d="M19.5229167,14.16875 L39.16875,14.16875 C39.628125,14.16875 39.9979167,13.79375 39.9979167,13.334375 C39.9979167,12.8739583 39.628125,12.5 39.16875,12.5 L19.5229167,12.5 C19.0635417,12.5 18.6885417,12.8739583 18.6885417,13.334375 C18.6885417,13.79375 19.0635417,14.16875 19.5229167,14.16875 Z" id="Fill-1" fill="#737373"></path>
            <path d="M19.5229167,26.66875 L39.16875,26.66875 C39.628125,26.66875 39.9979167,26.29375 39.9979167,25.834375 C39.9979167,25.3739583 39.628125,25 39.16875,25 L19.5229167,25 C19.0635417,25 18.6885417,25.3739583 18.6885417,25.834375 C18.6885417,26.29375 19.0635417,26.66875 19.5229167,26.66875 Z" id="Fill-2" fill="#737373"></path>
            <g id="Group-6">
                <mask id="mask-2" fill="white">
                    <use xlink:href="#path-1"></use>
                </mask>
                <g id="Clip-4"></g>
                <path d="M19.5229167,39.16875 L39.16875,39.16875 C39.628125,39.16875 39.9979167,38.79375 39.9979167,38.334375 C39.9979167,37.8739583 39.628125,37.5 39.16875,37.5 L19.5229167,37.5 C19.0635417,37.5 18.6885417,37.8739583 18.6885417,38.334375 C18.6885417,38.79375 19.0635417,39.16875 19.5229167,39.16875 Z" id="Fill-3" fill="#737373" mask="url(#mask-2)"></path>
                <path d="M49.165625,0 L0.834375,0 C0.373958333,0 0,0.373958333 0,0.834375 L0,49.165625 C0,49.6260417 0.373958333,50 0.834375,50 L49.165625,50 C49.6260417,50 50,49.6260417 50,49.165625 L50,0.834375 C50,0.373958333 49.6260417,0 49.165625,0 Z M1.66875,48.33125 L48.33125,48.33125 L48.33125,1.66875 L1.66875,1.66875 L1.66875,48.33125 Z" id="Fill-5" fill="#737373" mask="url(#mask-2)"></path>
            </g>
            <polygon id="Fill-7" fill="#737373" points="10.4166667 15.3927083 12.4385417 14.33125 14.465625 15.3927083 14.0791667 13.1427083 15.7145833 11.54375 13.4520833 11.21875 12.4385417 9.16770833 11.4302083 11.21875 9.16770833 11.54375 10.803125 13.1427083"></polygon>
            <polygon id="Fill-8" fill="#737373" points="10.4166667 27.9625 12.4385417 26.9 14.465625 27.9625 14.0791667 25.7125 15.7145833 24.1166667 13.4520833 23.7875 12.4385417 21.7364583 11.4302083 23.7875 9.16770833 24.1166667 10.803125 25.7125"></polygon>
            <polygon id="Fill-9" fill="#737373" points="10.4166667 40.8322917 12.4385417 39.7708333 14.465625 40.8322917 14.0791667 38.578125 15.7145833 36.9833333 13.4520833 36.6541667 12.4385417 34.6072917 11.4302083 36.6541667 9.16770833 36.9833333 10.803125 38.578125"></polygon>
        </g>
    </g>
</svg>