<?xml version="1.0" encoding="UTF-8" standalone="no"?>
<svg width="50px" height="49px" viewBox="0 0 50 49" version="1.1" xmlns="http://www.w3.org/2000/svg" xmlns:xlink="http://www.w3.org/1999/xlink">
    <!-- Generator: Sketch 43.1 (39012) - http://www.bohemiancoding.com/sketch -->
    <title>Group 46</title>
    <desc>Created with Sketch.</desc>
    <defs></defs>
    <g id="Page-1" stroke="none" stroke-width="1" fill="none" fill-rule="evenodd">
        <g id="Group-46" fill="#737373">
            <path d="M48.767865,0 L2.22249228,0 C1.54099228,0 1,0.550535074 1,1.22199259 L1,23.5335593 C1,24.2146556 1.55126111,24.7555519 2.22249228,24.7555519 C2.89359821,24.7555519 3.45475247,24.204391 3.45475247,23.5335593 L3.45475247,2.4537491 L47.5556416,2.4537491 L47.5556416,46.5366122 L26.3267038,46.5366122 C25.6453291,46.5366122 25.0944436,47.0871472 25.0944436,47.7683687 C25.0944436,48.4489642 25.6453291,49 26.3267038,49 L48.767865,49 C49.4492398,49 50,48.4489642 50,47.7683687 L50,1.23175651 C50,0.550535074 49.4492398,0 48.767865,0 Z" id="Fill-1"></path>
            <path d="M0,46.80103 C0,47.4640644 0.535921807,48 1.18955632,48 L17.8004515,48 C18.4635908,48 19,47.4640644 19,46.80103 L19,30.1990918 C19,29.5360574 18.4635908,29 17.8004515,29 L1.19906107,29 C0.535921807,29 0.00950475238,29.5360574 0.00950475238,30.1990918 L0.00950475238,46.80103 L0,46.80103 Z M2.38861739,45.6119306 L16.6113826,45.6119306 L16.6113826,31.3881912 L2.38861739,31.3881912 L2.38861739,45.6119306 Z" id="Fill-3"></path>
            <path d="M22.3517891,26.6476531 C22.5860709,26.882551 22.8891226,27 23.2020684,27 C23.5146477,27 23.8175772,26.882551 24.051859,26.6476531 L37.5961075,13.0865149 L37.5961075,20.8987649 C37.5961075,21.5637387 38.133441,22.1013641 38.7980538,22.1013641 C39.4621779,22.1013641 40,21.5637387 40,20.8987649 L40,10.2024769 C40,9.53750314 39.4621779,9 38.7980538,9 L28.0975563,9 C27.4334322,9 26.8957322,9.53750314 26.8957322,10.2024769 C26.8957322,10.8675729 27.4334322,11.405076 28.0975563,11.405076 L35.9055652,11.405076 L22.3517891,24.9561926 C21.882737,25.4254996 21.882737,26.1783462 22.3517891,26.6476531 Z" id="Fill-5"></path>
        </g>
    </g>
</svg>