<?xml version="1.0" encoding="UTF-8" standalone="no"?>
<svg width="50px" height="66px" viewBox="0 0 50 66" version="1.1" xmlns="http://www.w3.org/2000/svg" xmlns:xlink="http://www.w3.org/1999/xlink">
    <!-- Generator: Sketch 43.1 (39012) - http://www.bohemiancoding.com/sketch -->
    <title>grid (1)</title>
    <desc>Created with Sketch.</desc>
    <defs></defs>
    <g id="Page-1" stroke="none" stroke-width="1" fill="none" fill-rule="evenodd">
        <g id="grid-(1)" fill="#737373">
            <path d="M25,37.7450062 C24.4234375,37.7450062 23.9561198,38.2161937 23.9561198,38.7972375 L23.9561198,42.7508812 C23.9561198,43.3320562 24.4234375,43.8031125 25,43.8031125 C25.5765625,43.8031125 26.0438802,43.3320562 26.0438802,42.7508812 L26.0438802,38.7972375 C26.0438802,38.2161937 25.5765625,37.7450062 25,37.7450062" id="Fill-1"></path>
            <path d="M25,27.9884063 C25.5765625,27.9884063 26.0438802,27.51735 26.0438802,26.936175 L26.0438802,22.9825313 C26.0438802,22.4013563 25.5765625,21.9303 25,21.9303 C24.4234375,21.9303 23.9561198,22.4013563 23.9561198,22.9825313 L23.9561198,26.936175 C23.9561198,27.51735 24.4234375,27.9884063 25,27.9884063" id="Fill-2"></path>
            <path d="M25,45.652425 C24.4234375,45.652425 23.9561198,46.1236125 23.9561198,46.7046563 L23.9561198,50.6584313 C23.9561198,51.239475 24.4234375,51.7105313 25,51.7105313 C25.5765625,51.7105313 26.0438802,51.239475 26.0438802,50.6584313 L26.0438802,46.7046563 C26.0438802,46.1236125 25.5765625,45.652425 25,45.652425" id="Fill-3"></path>
            <path d="M25,20.0809875 C25.5765625,20.0809875 26.0438802,19.6099313 26.0438802,19.0287563 L26.0438802,15.0751125 C26.0438802,14.4939375 25.5765625,14.0228813 25,14.0228813 C24.4234375,14.0228813 23.9561198,14.4939375 23.9561198,15.0751125 L23.9561198,19.0287563 C23.9561198,19.6099313 24.4234375,20.0809875 25,20.0809875" id="Fill-4"></path>
            <path d="M11.271875,31.8146062 L7.34947917,31.8146062 C6.77291667,31.8146062 6.30559896,32.2856625 6.30559896,32.8668375 C6.30559896,33.4478812 6.77291667,33.9189375 7.34947917,33.9189375 L11.271875,33.9189375 C11.8484375,33.9189375 12.315625,33.4478812 12.315625,32.8668375 C12.315625,32.2856625 11.8484375,31.8146062 11.271875,31.8146062" id="Fill-5"></path>
            <path d="M19.1165365,31.8146062 L15.1940104,31.8146062 C14.6174479,31.8146062 14.1501302,32.2856625 14.1501302,32.8668375 C14.1501302,33.4478812 14.6174479,33.9189375 15.1940104,33.9189375 L19.1165365,33.9189375 C19.693099,33.9189375 20.1602865,33.4478812 20.1602865,32.8668375 C20.1602865,32.2856625 19.693099,31.8146062 19.1165365,31.8146062" id="Fill-6"></path>
            <path d="M26.9611979,31.8146063 L26.0438802,31.8146063 L26.0438802,30.88995 C26.0438802,30.3089063 25.5765625,29.8377188 25,29.8377188 C24.4234375,29.8377188 23.9561198,30.3089063 23.9561198,30.88995 L23.9561198,31.8146063 L23.0388021,31.8146063 C22.4622396,31.8146063 21.9950521,32.2856625 21.9950521,32.8668375 C21.9950521,33.4478813 22.4622396,33.9189375 23.0388021,33.9189375 L23.9561198,33.9189375 L23.9561198,34.8435938 C23.9561198,35.4247688 24.4234375,35.895825 25,35.895825 C25.5765625,35.895825 26.0438802,35.4247688 26.0438802,34.8435938 L26.0438802,33.9189375 L26.9611979,33.9189375 C27.5377604,33.9189375 28.0049479,33.4478813 28.0049479,32.8668375 C28.0049479,32.2856625 27.5376302,31.8146063 26.9611979,31.8146063" id="Fill-7"></path>
            <path d="M42.6503906,31.8146062 L38.7278646,31.8146062 C38.1513021,31.8146062 37.6841146,32.2856625 37.6841146,32.8668375 C37.6841146,33.4478812 38.1513021,33.9189375 38.7278646,33.9189375 L42.6503906,33.9189375 C43.2269531,33.9189375 43.6942708,33.4478812 43.6942708,32.8668375 C43.6942708,32.2856625 43.2269531,31.8146062 42.6503906,31.8146062" id="Fill-8"></path>
            <path d="M34.8057292,31.8146062 L30.8833333,31.8146062 C30.3067708,31.8146062 29.8395833,32.2856625 29.8395833,32.8668375 C29.8395833,33.4478812 30.3067708,33.9189375 30.8833333,33.9189375 L34.8057292,33.9189375 C35.3822917,33.9189375 35.8496094,33.4478812 35.8496094,32.8668375 C35.8496094,32.2856625 35.3822917,31.8146062 34.8057292,31.8146062" id="Fill-9"></path>
            <path d="M26.0438802,55.6643063 L26.0438802,54.612075 C26.0438802,54.0310313 25.5765625,53.5598438 25,53.5598438 C24.4234375,53.5598438 23.9561198,54.0310313 23.9561198,54.612075 L23.9561198,55.6643063 L2.10507812,55.6643063 L2.10507812,33.9189375 L3.42734375,33.9189375 C4.00390625,33.9189375 4.47109375,33.4478813 4.47109375,32.8668375 C4.47109375,32.2856625 4.00390625,31.8146063 3.42734375,31.8146063 L2.10507812,31.8146063 L2.10507812,10.0692375 L23.9561198,10.0692375 L23.9561198,11.1214688 C23.9561198,11.7025125 24.4234375,12.1737 25,12.1737 C25.5765625,12.1737 26.0438802,11.7025125 26.0438802,11.1214688 L26.0438802,10.0692375 L47.8949219,10.0692375 L47.8949219,31.8146063 L46.5726562,31.8146063 C45.9960937,31.8146063 45.5289062,32.2856625 45.5289062,32.8668375 C45.5289062,33.4478813 45.9960937,33.9189375 46.5726562,33.9189375 L47.8949219,33.9189375 L47.8949219,55.6643063 L26.0438802,55.6643063 Z M48.9388021,7.96490625 L1.06119792,7.96490625 C0.484635417,7.96490625 0.0174479167,8.4359625 0.0174479167,9.0171375 L0.0174479167,56.7165375 C0.0174479167,57.2975813 0.484635417,57.7686375 1.06119792,57.7686375 L48.9388021,57.7686375 C49.5153646,57.7686375 49.9825521,57.2975813 49.9825521,56.7165375 L49.9825521,9.0171375 C49.9825521,8.4359625 49.5153646,7.96490625 48.9388021,7.96490625 L48.9388021,7.96490625 Z" id="Fill-10"></path>
            <path d="M48.9388021,0.10854375 C48.3621094,0.10854375 47.8949219,0.5796 47.8949219,1.160775 L47.8949219,5.65005 C47.8949219,6.231225 48.3621094,6.70228125 48.9388021,6.70228125 C49.5153646,6.70228125 49.9825521,6.231225 49.9825521,5.65005 L49.9825521,1.160775 C49.9825521,0.5796 49.5153646,0.10854375 48.9388021,0.10854375" id="Fill-11"></path>
            <g id="Group-16">
                <path d="M1.06119792,6.70228125 C1.63789062,6.70228125 2.10507812,6.231225 2.10507812,5.65005 L2.10507812,1.160775 C2.10507812,0.5796 1.63789062,0.10854375 1.06119792,0.10854375 C0.484635417,0.10854375 0.0174479167,0.5796 0.0174479167,1.160775 L0.0174479167,5.65005 C0.0174479167,6.231225 0.484635417,6.70228125 1.06119792,6.70228125" id="Fill-13"></path>
            </g>
            <path d="M48.9388021,59.0312625 C48.3621094,59.0312625 47.8949219,59.50245 47.8949219,60.0834938 L47.8949219,64.5729 C47.8949219,65.1539438 48.3621094,65.625 48.9388021,65.625 C49.5153646,65.625 49.9825521,65.1539438 49.9825521,64.5729 L49.9825521,60.0834938 C49.9825521,59.50245 49.5153646,59.0312625 48.9388021,59.0312625" id="Fill-17"></path>
            <g id="Group-22" transform="translate(0.000000, 58.775000)">
                <path d="M1.06119792,0.2562625 C0.484635417,0.2562625 0.0174479167,0.72745 0.0174479167,1.30849375 L0.0174479167,5.7979 C0.0174479167,6.37894375 0.484635417,6.85 1.06119792,6.85 C1.63789062,6.85 2.10507812,6.37894375 2.10507812,5.7979 L2.10507812,1.30849375 C2.10507812,0.72745 1.63789062,0.2562625 1.06119792,0.2562625" id="Fill-19"></path>
            </g>
        </g>
    </g>
</svg>