<?xml version="1.0" encoding="UTF-8" standalone="no"?>
<svg width="131px" height="69px" viewBox="0 0 131 69" version="1.1" xmlns="http://www.w3.org/2000/svg" xmlns:xlink="http://www.w3.org/1999/xlink">
    <!-- Generator: Sketch 43.1 (39012) - http://www.bohemiancoding.com/sketch -->
    <title>cisco-seeklogo.com</title>
    <desc>Created with Sketch.</desc>
    <defs>
        <polygon id="path-1" points="119.150709 50.2304046 0.0240366972 50.2304046 0.0240366972 0.0295144509 119.150709 0.0295144509"></polygon>
    </defs>
    <g id="Page-1" stroke="none" stroke-width="1" fill="none" fill-rule="evenodd">
        <g id="March-14th-2017" transform="translate(-933.000000, -3611.000000)">
            <g id="cisco-seeklogo.com" transform="translate(933.000000, 3611.000000)">
                <g id="Group-8" transform="translate(0.000000, 18.745665)">
                    <mask id="mask-2" fill="white">
                        <use xlink:href="#path-1"></use>
                    </mask>
                    <g id="Clip-2"></g>
                    <polygon id="Fill-1" fill="#B01C33" mask="url(#mask-2)" points="37.031737 49.8515029 42.7737034 49.8515029 42.7737034 27.2007572 37.031737 27.2007572"></polygon>
                    <path d="M89.067581,33.6907457 C88.8328226,33.5706936 86.9827982,32.4802543 84.2366055,32.4802543 C80.5261407,32.4802543 77.9510092,35.0539942 77.9510092,38.5235376 C77.9510092,41.8897803 80.41437,44.5692139 84.2366055,44.5692139 C86.9367278,44.5692139 88.8155963,43.5019075 89.067581,43.3682948 L89.067581,49.447474 C88.3460795,49.649289 86.3866881,50.2543353 83.8367951,50.2543353 C77.3777339,50.2543353 71.7094801,45.8219827 71.7094801,38.5235376 C71.7094801,31.757948 76.8385107,26.7983237 83.8367951,26.7983237 C86.5285046,26.7983237 88.5243517,27.4500347 89.067581,27.6107688 L89.067581,33.6907457" id="Fill-3" fill="#B01C33" mask="url(#mask-2)"></path>
                    <path d="M29.1396881,33.6907457 C28.9089358,33.5706936 27.0629174,32.4802543 24.3167248,32.4802543 C20.5978471,32.4802543 18.024318,35.0539942 18.024318,38.5235376 C18.024318,41.8897803 20.4908838,44.5692139 24.3167248,44.5692139 C27.0160459,44.5692139 28.8937125,43.5019075 29.1396881,43.3682948 L29.1396881,49.447474 C28.427,49.649289 26.4688104,50.2543353 23.9044954,50.2543353 C17.4506422,50.2543353 11.7895994,45.8219827 11.7895994,38.5235376 C11.7895994,31.757948 16.9174281,26.7983237 23.9044954,26.7983237 C26.605419,26.7983237 28.6004648,27.4500347 29.1396881,27.6107688 L29.1396881,33.6907457" id="Fill-4" fill="#B01C33" mask="url(#mask-2)"></path>
                    <path d="M107.129156,32.5656069 C103.723557,32.5656069 101.193694,35.2338728 101.193694,38.5235376 C101.193694,41.8203815 103.723557,44.4858555 107.129156,44.4858555 C110.53155,44.4858555 113.068223,41.8203815 113.068223,38.5235376 C113.068223,35.2338728 110.53155,32.5656069 107.129156,32.5656069 M119.150709,38.5235376 C119.150709,45.0031561 114.125838,50.2543353 107.129156,50.2543353 C100.132073,50.2543353 95.113211,45.0031561 95.113211,38.5235376 C95.113211,32.0530925 100.132073,26.7983237 107.129156,26.7983237 C114.125838,26.7983237 119.150709,32.0530925 119.150709,38.5235376" id="Fill-5" fill="#B01C33" mask="url(#mask-2)"></path>
                    <path d="M64.5473456,32.3490347 C64.4624159,32.3219133 62.0439235,31.6574393 60.0584924,31.6574393 C57.7573792,31.6574393 56.5078716,32.424815 56.5078716,33.5144566 C56.5078716,34.8940578 58.1944465,35.3734682 59.1398899,35.6710058 L60.723107,36.1731503 C64.4499969,37.3529306 66.1473884,39.8939653 66.1473884,42.6531676 C66.1473884,48.3426763 61.1221162,50.2543353 56.728208,50.2543353 C53.6727431,50.2543353 50.8131774,49.6951561 50.5311468,49.6357283 L50.5311468,44.4228382 C51.0371193,44.5504682 53.4443945,45.2663931 55.9534251,45.2663931 C58.8089847,45.2663931 60.1229908,44.4328092 60.1229908,43.1509249 C60.1229908,42.0026532 58.9864557,41.3397746 57.5630826,40.8938671 C57.2141498,40.7786012 56.6925535,40.6158728 56.3364098,40.5006069 C53.1383272,39.493526 50.4734587,37.622948 50.4734587,33.873815 C50.4734587,29.636896 53.6579205,26.7911445 58.9508012,26.7911445 C61.7462691,26.7911445 64.3762844,27.4663873 64.5473456,27.513052 L64.5473456,32.3490347" id="Fill-6" fill="#B01C33" mask="url(#mask-2)"></path>
                    <path d="M5.70070336,2.85811561 C5.70070336,1.29584393 4.42155046,0.0295144509 2.85075229,0.0295144509 C1.28195719,0.0295144509 0,1.29584393 0,2.85811561 L0,8.80288439 C0,10.3731329 1.28195719,11.6394624 2.85075229,11.6394624 C4.42155046,11.6394624 5.70070336,10.3731329 5.70070336,8.80288439 L5.70070336,2.85811561" id="Fill-7" fill="#004C59" mask="url(#mask-2)"></path>
                </g>
                <path d="M21.3574067,13.7984046 C21.3574067,12.2373295 20.0778532,10.9690058 18.5078563,10.9690058 C16.9374587,10.9690058 15.6567034,12.2373295 15.6567034,13.7984046 L15.6567034,27.5485491 C15.6567034,29.1187977 16.9374587,30.3851272 18.5078563,30.3851272 C20.0778532,30.3851272 21.3574067,29.1187977 21.3574067,27.5485491 L21.3574067,13.7984046" id="Fill-9" fill="#004C59"></path>
                <path d="M37.0149113,3.12015607 C37.0149113,1.55947977 35.734156,0.292751445 34.164159,0.292751445 C32.5941621,0.292751445 31.3130061,1.55947977 31.3130061,3.12015607 L31.3130061,33.1997688 C31.3130061,34.7688208 32.5941621,36.0363468 34.164159,36.0363468 C35.734156,36.0363468 37.0149113,34.7688208 37.0149113,33.1997688 L37.0149113,3.12015607" id="Fill-10" fill="#004C59"></path>
                <path d="M52.6712141,13.7984046 C52.6712141,12.2373295 51.3908593,10.9690058 49.8204618,10.9690058 C48.2504648,10.9690058 46.9705107,12.2373295 46.9705107,13.7984046 L46.9705107,27.5485491 C46.9705107,29.1187977 48.2504648,30.3851272 49.8204618,30.3851272 C51.3908593,30.3851272 52.6712141,29.1187977 52.6712141,27.5485491 L52.6712141,13.7984046" id="Fill-11" fill="#004C59"></path>
                <path d="M68.3106911,21.6037803 C68.3106911,20.0415087 67.0391498,18.7751792 65.4771651,18.7751792 C63.9079694,18.7751792 62.6276147,20.0415087 62.6276147,21.6037803 L62.6276147,27.5485491 C62.6276147,29.1187977 63.9079694,30.3851272 65.4771651,30.3851272 C67.0391498,30.3851272 68.3106911,29.1187977 68.3106911,27.5485491 L68.3106911,21.6037803" id="Fill-12" fill="#004C59"></path>
                <path d="M83.9738043,13.7984046 C83.9738043,12.2373295 82.702263,10.9690058 81.1326667,10.9690058 C79.5662752,10.9690058 78.2915291,12.2373295 78.2915291,13.7984046 L78.2915291,27.5485491 C78.2915291,29.1187977 79.5662752,30.3851272 81.1326667,30.3851272 C82.702263,30.3851272 83.9738043,29.1187977 83.9738043,27.5485491 L83.9738043,13.7984046" id="Fill-13" fill="#004C59"></path>
                <path d="M99.6413242,3.12015607 C99.6413242,1.55947977 98.3689817,0.292751445 96.8001865,0.292751445 C95.2289878,0.292751445 93.9586483,1.55947977 93.9586483,3.12015607 L93.9586483,33.1997688 C93.9586483,34.7688208 95.2289878,36.0363468 96.8001865,36.0363468 C98.3689817,36.0363468 99.6413242,34.7688208 99.6413242,33.1997688 L99.6413242,3.12015607" id="Fill-14" fill="#004C59"></path>
                <path d="M115.30604,13.7984046 C115.30604,12.2373295 114.034498,10.9690058 112.428847,10.9690058 C110.85845,10.9690058 109.586908,12.2373295 109.586908,13.7984046 L109.586908,27.5485491 C109.586908,29.1187977 110.85845,30.3851272 112.428847,30.3851272 C114.034498,30.3851272 115.30604,29.1187977 115.30604,27.5485491 L115.30604,13.7984046" id="Fill-15" fill="#004C59"></path>
                <path d="M130.937505,21.6037803 C130.937505,20.0415087 129.662358,18.7751792 128.096367,18.7751792 C126.525969,18.7751792 125.251624,20.0415087 125.251624,21.6037803 L125.251624,27.5485491 C125.251624,29.1187977 126.525969,30.3851272 128.096367,30.3851272 C129.662358,30.3851272 130.937505,29.1187977 130.937505,27.5485491 L130.937505,21.6037803" id="Fill-16" fill="#004C59"></path>
                <polyline id="Fill-17" fill="#B01C33" points="127.652089 65.6154104 127.652089 65.9703815 126.637339 65.9703815 126.637339 68.5971676 126.220303 68.5971676 126.220303 65.9703815 125.200746 65.9703815 125.200746 65.6154104 127.652089 65.6154104"></polyline>
                <polyline id="Fill-18" fill="#B01C33" points="127.864813 65.6154104 128.518211 65.6154104 129.413177 68.0607225 129.430003 68.0607225 130.296927 65.6154104 130.937505 65.6154104 130.937505 68.5971676 130.50885 68.5971676 130.50885 66.150659 130.494829 66.150659 129.586242 68.5971676 129.190437 68.5971676 128.303083 66.150659 128.283453 66.150659 128.283453 68.5971676 127.864813 68.5971676 127.864813 65.6154104"></polyline>
            </g>
        </g>
    </g>
</svg>