<?xml version="1.0" encoding="UTF-8" standalone="no"?>
<svg width="106px" height="34px" viewBox="0 0 106 34" version="1.1" xmlns="http://www.w3.org/2000/svg" xmlns:xlink="http://www.w3.org/1999/xlink">
    <!-- Generator: Sketch 43.1 (39012) - http://www.bohemiancoding.com/sketch -->
    <title>Iteris_Logo_CMYK</title>
    <desc>Created with Sketch.</desc>
    <defs>
        <polygon id="path-1" points="24.470152 0.246630769 24.470152 27.7230769 12.2539118 27.7230769 0.0376715686 27.7230769 0.0376715686 0.246630769 24.470152 0.246630769"></polygon>
    </defs>
    <g id="Page-1" stroke="none" stroke-width="1" fill="none" fill-rule="evenodd">
        <g id="March-14th-2017" transform="translate(-371.000000, -3813.000000)">
            <g id="Iteris_Logo_CMYK" transform="translate(371.000000, 3813.000000)">
                <path d="M3.58191667,0.0776769231 C5.52784804,0.0776769231 7.11992647,1.5912 7.11992647,3.63904615 C7.11992647,5.68689231 5.48368137,7.20067692 3.58191667,7.20067692 C1.6362451,7.20067692 0,5.68689231 0,3.63904615 C0,1.63592308 1.59207843,0.0776769231 3.58191667,0.0776769231" id="Fill-2" fill="#474845"></path>
                <polygon id="Fill-3" fill="#474845" points="0.663539216 33.3767538 6.50081373 33.3767538 6.50081373 10.3169077 0.663539216 10.3169077"></polygon>
                <path d="M41.0183627,14.5904462 C36.3307206,14.5904462 35.1366618,17.8403231 34.8269755,18.9976308 L47.0323039,18.9976308 C46.8995441,18.241 45.7943382,14.5904462 41.0183627,14.5904462 Z M52.560152,23.1822462 L34.7386422,23.1822462 C34.9155686,24.4732 36.1535343,29.0140308 41.7258088,29.0140308 C45.7499118,29.0140308 47.7400098,26.4765846 47.9166765,26.2095538 L51.5871863,29.4591692 C50.8794804,30.3494462 48.3588627,34 41.1950294,34 C34.2078627,34 28.8130343,29.0587538 28.8130343,21.7576462 C28.8130343,14.7238308 33.9867696,9.6934 40.8414363,9.6934 C48.668549,9.6934 52.6043186,15.4365231 52.6043186,22.3366923 C52.6043186,22.6037231 52.560152,22.9152154 52.560152,23.1822462 L52.560152,23.1822462 Z" id="Fill-4" fill="#474845"></path>
                <path d="M61.0300196,10.3169077 L61.0300196,14.9466615 C61.6049657,12.4981385 64.0814167,9.73812308 67.9730196,9.73812308 C68.5035392,9.73812308 69.0782255,9.6934 69.6090049,9.78232308 L69.2112451,15.4365231 C68.9457255,15.4365231 68.7246324,15.3918 68.5035392,15.3918 C64.30225,15.3918 61.4722059,16.5049077 61.4722059,20.3777692 L61.4722059,33.3767538 L55.5907647,33.3767538 L55.5907647,10.3169077 L61.0300196,10.3169077" id="Fill-5" fill="#474845"></path>
                <path d="M75.7738922,0.0776769231 C77.7198235,0.0776769231 79.311902,1.5912 79.311902,3.63904615 C79.311902,5.68689231 77.6756569,7.20067692 75.7738922,7.20067692 C73.8282206,7.20067692 72.1919755,5.68689231 72.1919755,3.63904615 C72.1919755,1.63592308 73.7840539,0.0776769231 75.7738922,0.0776769231" id="Fill-6" fill="#474845"></path>
                <polygon id="Fill-7" fill="#474845" points="72.8555147 33.3767538 78.6927892 33.3767538 78.6927892 10.3169077 72.8555147 10.3169077"></polygon>
                <g id="Group-11" transform="translate(81.318627, 6.276923)">
                    <mask id="mask-2" fill="white">
                        <use xlink:href="#path-1"></use>
                    </mask>
                    <g id="Clip-9"></g>
                    <path d="M19.1854804,5.68715385 L16.8862157,9.87176923 C16.2671029,9.42663077 13.8348186,7.95756923 10.8275882,7.95756923 C8.92608333,7.95756923 7.11291176,8.66973846 7.11291176,9.82704615 C7.11291176,11.3852923 9.32410294,11.7412462 13.2154461,12.8543538 C17.1953824,14.0116615 20.1587059,16.1486923 20.1587059,20.1107385 C20.1587059,23.8944154 16.7092892,27.7230769 9.85488235,27.7230769 C4.54812745,27.7230769 0.877617647,25.2745538 0.0376715686,24.7404923 L2.51386275,20.1107385 C4.06177451,21.1788615 6.58239216,22.5148 9.72212255,22.5148 C12.6407598,22.5148 14.1886716,21.7131846 14.1886716,20.2885846 C14.1886716,18.6414154 11.092848,17.9292462 7.90895098,16.9053231 C4.50396078,15.7924769 1.05454412,14.4126 1.05454412,10.3169077 C1.05454412,6.17675385 5.34416667,3.41647692 10.7392549,3.41647692 C15.0286176,3.41647692 18.2127745,5.01918462 19.1854804,5.68715385" id="Fill-8" fill="#474845" mask="url(#mask-2)"></path>
                    <path d="M24.1453971,2.55052308 C24.1469559,1.85927692 23.9058578,1.32626154 23.4841961,0.970569231 C23.0630539,0.6154 22.5777402,0.472861538 22.0376078,0.588723077 C20.7850931,0.857584615 20.1909216,2.33946154 20.8910931,3.4306 C21.3979706,4.22044615 22.3613235,4.50526154 23.1498284,4.07947692 C23.8042745,3.72613846 24.1168186,3.15127692 24.1453971,2.55052308 Z M22.2101176,0.246630769 L22.5548775,0.246630769 C22.699848,0.2788 22.8479363,0.300769231 22.9890098,0.345230769 C24.0167941,0.670061538 24.6283725,1.72066154 24.4345588,2.82095385 C24.2597108,3.81401538 23.3948235,4.56489231 22.4338088,4.58816923 C21.4068039,4.61327692 20.5159363,3.87390769 20.3132892,2.86070769 C20.2930245,2.75949231 20.2787353,2.65696923 20.2615882,2.55523077 L20.2615882,2.27747692 C20.2673039,2.24949231 20.2758775,2.22176923 20.2784755,2.19352308 C20.3629118,1.25486154 21.0487941,0.480446154 21.965902,0.290046154 C22.0469608,0.273307692 22.128799,0.261015385 22.2101176,0.246630769 L22.2101176,0.246630769 Z" id="Fill-10" fill="#474845" mask="url(#mask-2)"></path>
                </g>
                <path d="M103.1645,7.75827692 L103.1645,8.5646 C103.411833,8.5646 103.652412,8.56747692 103.89273,8.56407692 C104.18423,8.55963077 104.315951,8.41735385 104.307637,8.12390769 C104.302181,7.92592308 104.201118,7.80195385 104.007824,7.77266154 C103.912216,7.75827692 103.81375,7.75984615 103.716324,7.7588 C103.533681,7.75696923 103.351039,7.75827692 103.1645,7.75827692 Z M102.863647,7.50850769 L103.142936,7.50850769 C103.395725,7.50876923 103.648515,7.50484615 103.901304,7.5106 C104.009382,7.51295385 104.119799,7.5242 104.2245,7.55061538 C104.416495,7.599 104.535485,7.72976923 104.580172,7.92383077 C104.644863,8.20393846 104.607711,8.45344615 104.357,8.63416923 C104.34323,8.64410769 104.331799,8.65692308 104.301142,8.68516923 C104.31673,8.68987692 104.328681,8.69196923 104.339333,8.6972 C104.511064,8.78089231 104.567181,8.92578462 104.566922,9.10938462 C104.566662,9.25061538 104.576015,9.39263077 104.594461,9.53255385 C104.602515,9.5948 104.643564,9.6526 104.668505,9.71275385 C104.679676,9.73943077 104.68773,9.76741538 104.7015,9.80743077 C104.58251,9.80743077 104.479627,9.81004615 104.377265,9.80481538 C104.358039,9.80403077 104.328681,9.77316923 104.324265,9.75224615 C104.301402,9.63952308 104.279319,9.52627692 104.268407,9.41224615 C104.258015,9.30344615 104.270745,9.19203077 104.256975,9.08375385 C104.235672,8.91715385 104.151755,8.82901538 103.98626,8.82247692 C103.714505,8.81175385 103.441971,8.8196 103.159824,8.8196 L103.159824,9.80298462 L102.863647,9.80298462 L102.863647,7.50850769 L102.863647,7.50850769 Z" id="Fill-12" fill="#474845"></path>
                <path d="M24.5236716,9.27703077 C26.4693431,9.27703077 28.0616814,10.7905538 28.0616814,12.8384 C28.0616814,14.8862462 26.4254363,16.4000308 24.5236716,16.4000308 C22.578,16.4000308 20.9417549,14.8862462 20.9417549,12.8384 C20.9417549,10.8352769 22.5338333,9.27703077 24.5236716,9.27703077" id="Fill-13" fill="#474845"></path>
                <path d="M19.2504314,3.29224615 L19.2504314,25.8978 C19.2504314,27.0106462 19.648451,28.6578154 22.0363088,28.6578154 C24.2477598,28.6578154 25.2646324,27.4557846 25.5298922,27.0998308 L28.4929559,31.2844462 C28.1832696,31.6406615 25.9723382,34 20.9752696,34 C15.1379951,34 13.4131569,30.0824154 13.4131569,26.8328 L13.4131569,15.3918 L9.43322059,15.3918 L9.43322059,10.3169077 L13.4131569,10.3169077 L13.4131569,6.78744615 L19.2504314,3.29224615" id="Fill-14" fill="#474845"></path>
            </g>
        </g>
    </g>
</svg>