<?xml version="1.0" encoding="UTF-8" standalone="no"?>
<svg width="199px" height="57px" viewBox="0 0 199 57" version="1.1" xmlns="http://www.w3.org/2000/svg" xmlns:xlink="http://www.w3.org/1999/xlink">
    <!-- Generator: Sketch 43.1 (39012) - http://www.bohemiancoding.com/sketch -->
    <title>mcafee-new-seeklogo.com</title>
    <desc>Created with Sketch.</desc>
    <defs>
        <polygon id="path-1" points="51.3961088 24.2932394 51.3961088 0.268751473 0.505655408 0.268751473 0.505655408 24.2932394 51.3961088 24.2932394"></polygon>
        <polygon id="path-3" points="36.1127885 15.564 0.174350453 15.564 0.174350453 0.1416 36.1127885 0.1416"></polygon>
    </defs>
    <g id="Page-1" stroke="none" stroke-width="1" fill="none" fill-rule="evenodd">
        <g id="March-14th-2017" transform="translate(-899.000000, -3722.000000)">
            <g id="mcafee-new-seeklogo.com" transform="translate(899.000000, 3722.000000)">
                <path d="M0,0.6636 L0.0456918429,0.6636 C5.8281148,3.3426 11.6177523,6.0012 17.3875498,8.703 C17.3172085,11.3112 17.3172085,13.9248 17.385145,16.5336 C13.9564532,15.0024 10.5656375,13.3836 7.15257704,11.8152 C7.18263746,17.2386 7.15257704,22.659 7.17001208,28.0824 C10.575858,29.661 13.9943293,31.2198 17.3875498,32.8284 C17.324423,35.4474 17.2895529,38.0682 17.4152054,40.6842 C11.6027221,38.0178 5.81248338,35.3034 0.00480966767,32.6298 C0,21.9744 0.0102205438,11.319 0,0.6636" id="Fill-1" fill="#AD252A"></path>
                <path d="M34.6644773,0.6636 L34.7576647,0.6636 C34.7624743,11.334 34.793136,22.0044 34.7450393,32.6748 C28.9475861,35.301 23.1928187,38.0154 17.4152054,40.6842 C17.2895529,38.0682 17.324423,35.4474 17.3875498,32.8284 C20.8036163,31.2396 24.2220876,29.6514 27.6459698,28.08 C27.6658097,22.6542 27.6429637,17.2308 27.6585952,11.805 C24.234713,13.3812 20.8390876,15.0228 17.385145,16.5336 C17.3172085,13.9248 17.3172085,11.3112 17.3875498,8.703 C23.1399124,6.0114 28.9349607,3.4056 34.6644773,0.6636" id="Fill-2" fill="#5D1C1B"></path>
                <path d="M48.2175196,0.5538 C52.8660634,3.9936 57.4610997,7.5096 62.0873988,10.9794 C66.7209124,7.5096 71.3123414,3.9858 75.9687009,0.546 C75.9837311,11.247 75.9530695,21.9474 75.9416465,32.6442 C73.586713,32.6292 71.2353867,32.6442 68.8840604,32.637 C68.8804532,26.5374 68.8882689,20.4378 68.8804532,14.3388 C66.6060816,16.0086 64.3503474,17.7096 62.0759758,19.3758 C59.812426,17.6904 57.5530846,16.0014 55.278713,14.331 C55.2630816,20.4306 55.3015589,26.526 55.2594743,32.6256 C52.908148,32.6064 50.5568218,32.6214 48.2060967,32.61 C48.2133112,21.9246 48.1904653,11.2392 48.2175196,0.5538" id="Fill-3" fill="#A7262A"></path>
                <g id="Group-7" transform="translate(101.604230, 0.600000)" fill="#A7262A">
                    <path d="M15.3001541,12.783 C14.3123686,15.2484 13.2975287,17.7096 12.3175589,20.178 C14.2931299,20.1858 16.2729094,20.1858 18.2526888,20.178 C17.284142,17.7096 16.292148,15.2442 15.3001541,12.783 Z M10.5746556,0.1452 C12.7732749,0.1374 14.9749003,0.1524 17.1765257,0.1338 C21.618855,10.7652 26.0034683,21.42 30.4187432,32.0598 C27.9375559,32.0634 25.4521601,32.0634 22.9667644,32.0634 C22.2350937,30.2442 21.5154471,28.4256 20.7765619,26.61 C17.096565,26.6178 13.416568,26.6136 9.73236254,26.6136 C8.99708459,28.4214 8.27322961,30.2292 7.54576737,32.037 C5.06818731,32.037 2.59481571,32.0406 0.11723565,32.037 C4.18741692,22.815 8.25038369,13.5894 12.3175589,4.368 C11.7391964,2.958 11.1530181,1.5516 10.5746556,0.1452 L10.5746556,0.1452 Z" id="Fill-4"></path>
                    <path d="M39.2492931,0.6918 C41.9529275,-0.1416 44.9433384,0.0648 47.5549879,1.131 C46.6742175,3.1068 45.7513625,5.0634 44.8633776,7.0356 C43.6339063,6.5538 42.0906042,5.958 40.9038187,6.852 C39.4753474,8.0406 40.0765559,10.089 39.9575166,11.7018 L44.1852145,11.7018 C44.1816073,13.7196 44.2008459,15.741 44.1659758,17.7588 C42.7645589,17.763 41.3589335,17.7588 39.9575166,17.763 C39.9539094,22.5288 39.9575166,27.294 39.9539094,32.0598 C37.7823444,32.0634 35.6113807,32.0634 33.4398157,32.0598 C33.4362085,27.2868 33.4398157,22.5132 33.4398157,17.7402 C32.4862991,17.7324 31.5369909,17.7402 30.5870816,17.7324 L30.5870816,11.7054 C31.5448066,11.6982 32.5055378,11.7054 33.4632628,11.7018 C33.4632628,9.6114 33.302139,7.4328 34.1372175,5.4612 C34.9909335,3.195 36.9322356,1.4022 39.2492931,0.6918" id="Fill-6"></path>
                </g>
                <path d="M86.0016677,9.5652 C89.3792568,8.205 93.3652689,8.1324 96.6929577,9.684 C98.9793535,10.7466 100.702417,12.6726 102.088804,14.7282 C100.300208,15.8022 98.4965831,16.857 96.7049819,17.9196 C95.5867341,16.047 93.7596616,14.3388 91.4239668,14.4342 C88.0313474,14.2392 84.9790121,17.289 85.1707976,20.6712 C85.0631813,24.0036 88.0998852,26.9346 91.427574,26.7516 C93.7410242,26.82 95.5939486,25.1502 96.6929577,23.2698 C98.4815529,24.3288 100.273755,25.3836 102.054535,26.4498 C100.794402,28.5516 98.9907764,30.3552 96.754281,31.3986 C92.3011299,33.5466 86.5529758,32.8968 82.8080483,29.6256 C79.7599215,26.9652 78.2316495,22.7046 78.890574,18.7182 C79.4995982,14.7246 82.2332931,11.094 86.0016677,9.5652" id="Fill-8" fill="#A7262A"></path>
                <g id="Group-12" transform="translate(147.296073, 8.400000)">
                    <mask id="mask-2" fill="white">
                        <use xlink:href="#path-1"></use>
                    </mask>
                    <g id="Clip-10"></g>
                    <path d="M7.39666767,9.2634 C10.8199486,9.2862 14.2438308,9.2826 17.6671118,9.2676 C16.7406495,7.3524 14.8642779,5.8548 12.6620514,5.8662 C10.3684411,5.6826 8.24677644,7.1772 7.39666767,9.2634 Z M2.9777855,4.9338 C6.81830514,-0.222 14.9520544,-1.2918 20.0142296,2.6676 C23.7940272,5.3388 25.2531601,10.1808 24.9236979,14.6328 C19.0228369,14.6328 13.1255831,14.6442 7.22832931,14.6256 C8.17042296,17.415 11.2606344,19.215 14.1596616,18.5538 C15.5496556,18.321 16.7214109,17.484 17.7627039,16.5822 C19.5284532,17.541 21.2972085,18.4968 23.0587492,19.4712 C21.2016163,21.4854 18.8809517,23.1402 16.2043716,23.8434 C11.4139426,25.1352 5.77280363,23.526 2.83950755,19.4136 C-0.323450151,15.2448 -0.265734139,9.042 2.9777855,4.9338 L2.9777855,4.9338 Z" id="Fill-9" fill="#A7262A" mask="url(#mask-2)"></path>
                    <path d="M33.8726858,9.2862 C37.296568,9.3132 40.7234562,9.3096 44.1473384,9.2904 C43.1781903,7.215 41.0451027,5.7018 38.6979849,5.8812 C36.5420514,5.8662 34.68071,7.3524 33.8726858,9.2862 Z M28.826142,5.8584 C31.8892991,0.7794 38.9853625,-1.1544 44.2928308,1.3794 C47.3295347,2.7552 49.7457915,5.4378 50.7299698,8.6256 C51.3846858,10.5588 51.4117402,12.6192 51.3925015,14.6328 C45.4952477,14.6562 39.5937855,14.5908 33.6965317,14.6676 C34.6350181,17.3082 37.4685136,19.089 40.2641329,18.6306 C41.7918036,18.4626 43.1096526,17.5908 44.2393233,16.5972 C45.9966556,17.5452 47.7431662,18.5118 49.5083142,19.452 C47.3523807,21.9744 44.3000453,23.7936 40.9801722,24.1908 C36.8829366,24.7068 32.4520302,23.2662 29.7910816,20.0328 C26.455577,16.158 26.0341299,10.1466 28.826142,5.8584 L28.826142,5.8584 Z" id="Fill-11" fill="#A7262A" mask="url(#mask-2)"></path>
                </g>
                <path d="M51.7249698,46.0584 C49.6688369,47.247 50.0938912,51.4356 52.7476254,51.4932 C54.7730967,51.4512 55.4392356,48.9174 54.7809124,47.331 C54.4207885,46.0812 52.8696707,45.4206 51.7249698,46.0584 Z M48.2060967,40.4484 C48.971435,40.4442 49.7415831,40.4442 50.5111299,40.4442 C50.5111299,41.9844 50.5303686,43.5246 50.4804683,45.0612 C52.0009245,43.3224 55.0640816,43.4292 56.3927523,45.3438 C57.7713233,47.3658 57.721423,50.4114 56.0518671,52.257 C54.5584653,53.8512 51.8013233,53.8392 50.3463988,52.1922 C50.3620302,52.452 50.3962991,52.968 50.4155378,53.2242 L48.2060967,53.2242 L48.2060967,40.4484 L48.2060967,40.4484 Z" id="Fill-13" fill="#A7262A"></path>
                <path d="M72.8364048,40.4442 L75.1913384,40.4442 L75.1913384,53.2242 C74.4061601,53.2242 73.6209819,53.2242 72.8364048,53.2278 L72.8364048,40.4442" id="Fill-14" fill="#A7262A"></path>
                <path d="M104.164175,40.4442 C104.930115,40.4442 105.699662,40.4442 106.46981,40.4484 C106.504079,43.7886 106.400671,47.136 106.511894,50.4762 C106.492656,51.1566 107.273625,51.2328 107.752187,51.4086 C107.744973,52.0548 107.73355,52.7004 107.729341,53.3502 C106.780033,53.2662 105.661785,53.4114 104.918692,52.689 C104.233314,52.0356 104.168384,51.027 104.15636,50.1402 C104.160568,46.911 104.164175,43.6776 104.164175,40.4442" id="Fill-15" fill="#A7262A"></path>
                <g id="Group-19" transform="translate(57.114804, 41.400000)">
                    <mask id="mask-4" fill="white">
                        <use xlink:href="#path-3"></use>
                    </mask>
                    <g id="Clip-17"></g>
                    <path d="M31.597713,0.1416 L33.8648701,0.1416 C33.887716,1.0206 33.8612628,1.8954 33.8919245,2.7708 C34.5773021,2.7708 35.2626798,2.7666 35.9522659,2.7666 C35.9522659,3.3822 35.9480574,3.9972 35.9480574,4.6128 C35.2590725,4.6128 34.5694864,4.6128 33.8805015,4.6164 C33.9261934,6.0804 33.7079547,7.578 34.0374169,9.015 C34.3819094,9.837 35.381719,9.8028 36.1127885,9.9666 C36.1013656,10.6278 36.0935498,11.289 36.0899426,11.9502 C34.5081631,11.9808 32.4977221,11.721 31.8315831,10.0434 C31.2916979,8.2932 31.6325831,6.4206 31.5484139,4.6206 C31.2454048,4.6164 30.6484048,4.6128 30.3496042,4.6086 C30.345997,3.9972 30.345997,3.3858 30.345997,2.7744 C30.7596284,2.7708 31.1768671,2.7666 31.5904985,2.763 C31.597713,1.8876 31.5904985,1.0164 31.597713,0.1416" id="Fill-16" fill="#A7262A" mask="url(#mask-4)"></path>
                    <path d="M0.174350453,2.6256 C1.04730514,2.6214 1.91665257,2.6214 2.78960725,2.6214 C3.55915408,4.773 4.40565559,6.8982 5.06818731,9.0876 C5.68081873,6.9018 6.46599698,4.773 7.1856435,2.6214 C8.03214502,2.6214 8.87864653,2.6214 9.72454683,2.6256 C8.33094562,6.1794 6.9866435,9.7566 5.56238066,13.2996 C5.14454079,14.4498 4.15314804,15.252 3.00003021,15.6 L1.7483142,15.6 C1.26975227,15.4434 0.798404834,15.279 0.331265861,15.0996 C0.557320242,14.5416 0.786981873,13.9836 1.02025076,13.4256 C1.67556798,13.4484 2.41084592,13.8456 2.99642296,13.395 C3.50564653,12.9552 3.76596979,12.3174 4.10685498,11.7594 C2.76676133,8.7288 1.48017523,5.6712 0.174350453,2.6256" id="Fill-18" fill="#A7262A" mask="url(#mask-4)"></path>
                </g>
                <path d="M77.6689184,44.0214 C78.4192266,44.0256 79.1737432,44.0256 79.9282598,44.0328 C79.9090211,44.553 79.882568,45.0726 79.8519063,45.5922 C80.9202538,44.0178 83.0413172,43.3602 84.7956435,44.1402 C85.8982598,44.6256 86.3154985,45.8982 86.3269215,47.0178 C86.3846375,49.0854 86.3233142,51.153 86.3461601,53.2242 C85.5766133,53.2242 84.8070665,53.2242 84.0411269,53.2278 C83.9683807,51.1032 84.1902266,48.9594 83.9262961,46.8498 C83.3136647,45.168 80.7633384,46.0434 80.2919909,47.4342 C79.6871752,49.2918 80.081568,51.3018 79.9739517,53.2242 L77.6689184,53.2242 C77.6689184,50.1594 77.6653112,47.0904 77.6689184,44.0214" id="Fill-20" fill="#A7262A"></path>
                <path d="M96.1951571,47.4648 C97.5857523,47.4954 98.9757462,47.4954 100.36574,47.469 C100.112631,46.647 99.6953927,45.657 98.6883686,45.6264 C97.4631057,45.4164 96.5709124,46.4214 96.1951571,47.4648 Z M95.6131873,44.7474 C97.4210211,43.368 100.495601,43.4406 101.832088,45.4434 C102.601634,46.4868 102.582997,47.832 102.598027,49.0698 C100.442094,49.0812 98.2825529,49.0506 96.1224109,49.0932 C96.4326344,49.8996 96.7506737,50.8278 97.6278369,51.1794 C98.9793535,51.8826 100.469148,51.21 101.663749,50.5068 C101.939704,51.0876 102.234296,51.657 102.510251,52.2384 C100.572556,53.5452 97.8460755,53.9808 95.831426,52.5936 C93.2468308,50.8812 93.1548459,46.6092 95.6131873,44.7474 L95.6131873,44.7474 Z" id="Fill-21" fill="#A7262A"></path>
            </g>
        </g>
    </g>
</svg>