<?xml version="1.0" encoding="UTF-8" standalone="no"?>
<svg width="131px" height="37px" viewBox="0 0 131 37" version="1.1" xmlns="http://www.w3.org/2000/svg" xmlns:xlink="http://www.w3.org/1999/xlink">
    <!-- Generator: Sketch 43.1 (39012) - http://www.bohemiancoding.com/sketch -->
    <title>riverbed</title>
    <desc>Created with Sketch.</desc>
    <defs></defs>
    <g id="Page-1" stroke="none" stroke-width="1" fill="none" fill-rule="evenodd">
        <g id="March-14th-2017" transform="translate(-933.000000, -3808.000000)">
            <g id="riverbed" transform="translate(933.000000, 3808.000000)">
                <path d="M0.462194872,10.6262679 L5.74048718,10.6262679 L5.74048718,13.3715357 C7.91374359,11.4904821 9.67115897,10.3196964 12.7251385,10.3196964 L12.7251385,15.8168393 C12.2065128,15.6120179 11.688559,15.5102679 11.1202205,15.5102679 C8.8952359,15.5102679 5.74048718,16.8852143 5.74048718,21.1078393 L5.74048718,36.4278214 L0.462194872,36.4278214 L0.462194872,10.6262679" id="Fill-1" fill="#E5722A"></path>
                <path d="M14.8446513,2.78953571 C14.8446513,1.36173214 16.0317128,0.19425 17.4848051,0.19425 C18.9331949,0.19425 20.124959,1.36173214 20.124959,2.78953571 C20.124959,4.21667857 18.9331949,5.3835 17.4848051,5.3835 C16.0317128,5.3835 14.8446513,4.21667857 14.8446513,2.78953571" id="Fill-2" fill="#8A8B8A"></path>
                <polygon id="Fill-3" fill="#E5722A" points="14.8433077 36.4258393 20.124959 36.4258393 20.124959 10.6249464 14.8433077 10.6249464"></polygon>
                <polyline id="Fill-4" fill="#E5722A" points="33.7308205 36.4278214 29.0739385 36.4278214 22.2451436 10.6256071 27.8324615 10.6256071 31.3513231 27.1130714 31.4541077 27.1130714 34.9729692 10.6256071 40.5616308 10.6256071 33.7308205 36.4278214"></polyline>
                <path d="M46.3558615,21.4163929 L51.532041,21.4163929 L51.532041,18.4616786 C51.532041,16.5284286 50.5471897,15.5102679 48.9422718,15.5102679 C47.3393692,15.5102679 46.3558615,16.5284286 46.3558615,18.4616786 L46.3558615,21.4163929 Z M46.3558615,25.4857321 L46.3558615,28.9961071 C46.3558615,30.6247679 47.3393692,31.5425 48.9422718,31.5425 C50.9616872,31.5425 51.4279128,30.067125 51.532041,28.9452321 L56.8089897,28.9452321 C56.8089897,31.0833036 56.0317231,33.0680893 54.6861179,34.4430357 C53.2901282,35.866875 51.3734974,36.7324107 48.9422718,36.7324107 C45.7337795,36.7324107 43.3032256,35.2550536 42.0604051,33.0172143 C41.3388974,31.6938036 41.0789128,29.8629643 41.0789128,27.7784107 L41.0789128,19.2750179 C41.0789128,17.1904643 41.3388974,15.3576429 42.0604051,14.0335714 C43.3032256,11.7957321 45.7337795,10.3196964 48.9422718,10.3196964 C53.8094256,10.3196964 56.8089897,13.8307321 56.8089897,18.36125 L56.8089897,25.4857321 L46.3558615,25.4857321 L46.3558615,25.4857321 Z" id="Fill-5" fill="#E5722A"></path>
                <path d="M58.9634359,10.6262679 L64.2417282,10.6262679 L64.2417282,13.3715357 C66.4163282,11.4904821 68.1724,10.3196964 71.2270513,10.3196964 L71.2270513,15.8168393 C70.7097692,15.6120179 70.1911436,15.5102679 69.6234769,15.5102679 C67.3998359,15.5102679 64.2417282,16.8852143 64.2417282,21.1078393 L64.2417282,36.4278214 L58.9634359,36.4278214 L58.9634359,10.6262679" id="Fill-6" fill="#E5722A"></path>
                <path d="M83.8514205,18.56475 C83.8514205,16.9374107 83.2817385,15.5102679 81.2650103,15.5102679 C79.7642205,15.5102679 78.6268718,16.6803929 78.6268718,18.3083929 L78.6268718,28.3360536 C78.6268718,30.21975 79.6614359,31.5425 81.2650103,31.5425 C83.076841,31.5425 83.8514205,30.1166786 83.8514205,28.0294821 L83.8514205,18.56475 Z M73.3499231,0.193589286 L78.6268718,0.193589286 L78.6268718,12.9658571 L78.731,12.9658571 C79.8663333,11.2863214 81.5229795,10.3177143 83.5921077,10.3177143 C86.1288051,10.3177143 87.4240256,11.2863214 88.3013897,12.6612679 C88.9731846,13.7289821 89.1297128,15.2056786 89.1297128,18.9215357 L89.1297128,28.7423929 C89.1297128,31.5913929 88.8717436,33.1705 88.2483179,34.2890893 C87.3192256,35.968625 85.7660359,36.7324107 83.6451795,36.7324107 C81.0056974,36.7324107 79.9718051,35.5629464 78.6268718,34.08625 L78.6268718,36.4278214 L73.3499231,36.4278214 L73.3499231,0.193589286 L73.3499231,0.193589286 Z" id="Fill-7" fill="#E5722A"></path>
                <path d="M96.5443128,21.4163929 L101.720492,21.4163929 L101.720492,18.4616786 C101.720492,16.5284286 100.734297,15.5102679 99.1300513,15.5102679 C97.5271487,15.5102679 96.5443128,16.5284286 96.5443128,18.4616786 L96.5443128,21.4163929 Z M96.5443128,25.4857321 L96.5443128,28.9961071 C96.5443128,30.6247679 97.5271487,31.5425 99.1300513,31.5425 C101.15081,31.5425 101.617708,30.067125 101.720492,28.9452321 L106.998113,28.9452321 C106.998113,31.0833036 106.22219,33.0680893 104.874569,34.4430357 C103.478579,35.866875 101.565308,36.7324107 99.1300513,36.7324107 C95.9229026,36.7324107 93.4916769,35.2550536 92.2502,33.0172143 C91.5253333,31.6938036 91.2673641,29.8629643 91.2673641,27.7784107 L91.2673641,19.2750179 C91.2673641,17.1904643 91.5253333,15.3576429 92.2502,14.0335714 C93.4916769,11.7957321 95.9229026,10.3196964 99.1300513,10.3196964 C103.99519,10.3196964 106.998113,13.8307321 106.998113,18.36125 L106.998113,25.4857321 L96.5443128,25.4857321 L96.5443128,25.4857321 Z" id="Fill-8" fill="#E5722A"></path>
                <path d="M114.42279,28.0294821 C114.42279,30.1166786 115.198041,31.5425 117.007856,31.5425 C118.614118,31.5425 119.649354,30.21975 119.649354,28.3347321 L119.649354,18.3077321 C119.649354,16.6784107 118.507974,15.5096071 117.007856,15.5096071 C114.993144,15.5096071 114.42279,16.9354286 114.42279,18.56475 L114.42279,28.0294821 Z M119.649354,34.08625 C118.304421,35.5603036 117.267841,36.7324107 114.626344,36.7324107 C112.506159,36.7324107 110.956328,35.968625 110.025892,34.2890893 C109.401795,33.1705 109.144497,31.5927143 109.144497,28.7437143 L109.144497,18.9215357 C109.144497,15.2056786 109.301026,13.7296429 109.970805,12.6606071 C110.850856,11.2869821 112.145405,10.3190357 114.682774,10.3190357 C116.747872,10.3190357 118.405862,11.2869821 119.542538,12.9651964 L119.649354,12.9651964 L119.649354,0.192928571 L124.924959,0.192928571 L124.924959,36.4258393 L119.649354,36.4258393 L119.649354,34.08625 L119.649354,34.08625 Z" id="Fill-9" fill="#E5722A"></path>
                <path d="M125.881595,2.48296429 C125.881595,3.78655357 126.955123,4.84171429 128.279231,4.84171429 C129.604682,4.84171429 130.67821,3.78655357 130.67821,2.48296429 C130.67821,1.18069643 129.604682,0.125535714 128.279231,0.125535714 C126.955123,0.125535714 125.881595,1.18069643 125.881595,2.48296429 L125.881595,2.48296429 Z M130.203923,2.48296429 C130.203923,3.54539286 129.337979,4.41291071 128.279231,4.41291071 C127.219138,4.41291071 126.357897,3.54539286 126.357897,2.48296429 C126.357897,1.42119643 127.219138,0.553678571 128.279231,0.553678571 C129.337979,0.553678571 130.203923,1.42119643 130.203923,2.48296429 L130.203923,2.48296429 Z M127.371636,3.85923214 L127.809646,3.85923214 L127.809646,2.66532143 L128.146215,2.66532143 L128.948338,3.85923214 L129.478385,3.85923214 L128.676262,2.65276786 C129.067918,2.60651786 129.392395,2.39971429 129.392395,1.88501786 C129.392395,1.36239286 129.074636,1.11 128.431056,1.11 L127.371636,1.11 L127.371636,3.85923214 Z M127.809646,1.49982143 L128.446508,1.49982143 C128.744785,1.49982143 128.955728,1.61016071 128.955728,1.863875 C128.955728,2.15789286 128.736723,2.2755 128.306103,2.2755 L127.809646,2.2755 L127.809646,1.49982143 L127.809646,1.49982143 Z" id="Fill-10" fill="#E5722A"></path>
            </g>
        </g>
    </g>
</svg>