<?xml version="1.0" encoding="UTF-8" standalone="no"?>
<svg width="163px" height="34px" viewBox="0 0 163 34" version="1.1" xmlns="http://www.w3.org/2000/svg" xmlns:xlink="http://www.w3.org/1999/xlink">
    <!-- Generator: Sketch 43.1 (39012) - http://www.bohemiancoding.com/sketch -->
    <title>WEKA-LogoCMYK_BlackGreen_NoTagline</title>
    <desc>Created with Sketch.</desc>
    <defs>
        <polygon id="path-1" points="43.7383333 12.59564 43.7383333 25.00768 0.124151667 25.00768 0.124151667 0.1836 43.7383333 0.1836 43.7383333 12.59564"></polygon>
        <polygon id="path-3" points="-2.86226902e-16 24.548816 -2.86226902e-16 0.26158479 36.8663324 0.26158479 36.8663324 24.548816 -8.92135771e-16 24.548816"></polygon>
    </defs>
    <g id="Page-1" stroke="none" stroke-width="1" fill="none" fill-rule="evenodd">
        <g id="March-14th-2017" transform="translate(-342.000000, -3723.000000)">
            <g id="WEKA-LogoCMYK_BlackGreen_NoTagline" transform="translate(342.000000, 3723.000000)">
                <path d="M67.0587433,8.965936 C65.7588183,8.965936 64.705295,10.020752 64.705295,11.322272 L64.705295,30.895936 C64.705295,32.197456 65.7588183,33.252544 67.0587433,33.252544 C68.3583967,33.252544 69.41192,32.197456 69.41192,30.895936 L69.41192,11.322272 C69.41192,10.020752 68.3583967,8.965936 67.0587433,8.965936" id="Fill-1" fill="#1A1918"></path>
                <path d="M84.6668183,9.854288 C83.750215,8.931664 82.2590367,8.928128 81.3391733,9.845856 L71.709405,19.439568 C71.26523,19.881024 71.01584,20.482688 71.01584,21.109648 C71.01584,21.736064 71.26523,22.338 71.709405,22.779456 L81.3391733,32.371264 C81.79829,32.829584 82.3975867,33.057792 82.998785,33.057792 C83.6032433,33.057792 84.2077017,32.826048 84.6668183,32.363104 C85.5834217,31.44048 85.57989,29.949104 84.6583967,29.031376 L76.7067133,21.109648 L84.6583967,13.187648 C85.57989,12.268288 85.5834217,10.776912 84.6668183,9.854288" id="Fill-2" fill="#1A1918"></path>
                <g id="Group-6" transform="translate(119.261667, 8.976000)">
                    <mask id="mask-2" fill="white">
                        <use xlink:href="#path-1"></use>
                    </mask>
                    <g id="Clip-4"></g>
                    <path d="M31.707575,0.1836 C25.073475,0.1836 19.676545,5.587424 19.676545,12.229392 C19.676545,18.872992 25.073475,24.276816 31.707575,24.276816 C38.3414033,24.276816 43.7383333,18.872992 43.7383333,12.229392 C43.7383333,5.587424 38.3414033,0.1836 31.707575,0.1836 M31.707575,19.564144 C27.6695217,19.564144 24.38317,16.27376 24.38317,12.229392 C24.38317,8.186656 27.6695217,4.896272 31.707575,4.896272 C35.7469867,4.896272 39.0317083,8.186656 39.0317083,12.229392 C39.0317083,16.27376 35.7469867,19.564144 31.707575,19.564144" id="Fill-3" fill="#1A1918" mask="url(#mask-2)"></path>
                    <path d="M3.10515,19.054688 C2.32057667,19.054688 1.55447667,19.372112 0.996201667,19.927808 C0.444718333,20.485136 0.124151667,21.253808 0.124151667,22.039344 C0.124151667,22.82488 0.444718333,23.595456 0.996201667,24.15088 C1.550945,24.706576 2.32057667,25.024 3.10515,25.024 C3.88945167,25.024 4.65908333,24.706576 5.21382667,24.15088 C5.76884167,23.595456 6.08587667,22.82488 6.08587667,22.039344 C6.08587667,21.253808 5.76884167,20.485136 5.21382667,19.927808 C4.65908333,19.372112 3.88945167,19.054688 3.10515,19.054688" id="Fill-5" fill="#00A260" mask="url(#mask-2)"></path>
                </g>
                <path d="M132.176157,0.136272 C131.394843,0.136272 130.625483,0.453696 130.070468,1.009392 C129.515453,1.566448 129.195158,2.335392 129.195158,3.120928 C129.195158,3.906192 129.515453,4.676768 130.070468,5.232192 C130.625483,5.787888 131.391583,6.105312 132.176157,6.105312 C132.963718,6.105312 133.72846,5.787888 134.285105,5.232192 C134.84012,4.673504 135.160143,3.906192 135.160143,3.120928 C135.160143,2.335392 134.84012,1.566448 134.285105,1.009392 C133.72846,0.453696 132.96073,0.136272 132.176157,0.136272" id="Fill-7" fill="#00A260"></path>
                <path d="M50.0086717,18.359728 C48.7090183,18.359728 47.6552233,19.414544 47.6552233,20.715792 C47.6552233,22.01704 48.7090183,23.072128 50.0086717,23.072128 L56.8076733,23.072128 C58.1056967,23.072128 59.1611217,22.01704 59.1611217,20.715792 C59.1611217,19.414544 58.1056967,18.359728 56.8076733,18.359728 L50.0086717,18.359728" id="Fill-8" fill="#1A1918"></path>
                <path d="M60.7286383,11.322272 C60.7286383,10.021024 59.675115,8.966208 58.3754617,8.966208 L42.67503,8.966208 C41.3737467,8.966208 40.3199517,10.021024 40.3199517,11.322272 L40.3199517,30.896208 C40.3199517,32.197728 41.3737467,33.252544 42.67503,33.252544 L58.3754617,33.252544 C59.675115,33.252544 60.7286383,32.197728 60.7286383,30.896208 C60.7286383,29.59496 59.675115,28.540144 58.3754617,28.540144 L45.0282067,28.540144 L45.0282067,13.678608 L58.3754617,13.678608 C59.675115,13.678608 60.7286383,12.62352 60.7286383,11.322272" id="Fill-9" fill="#1A1918"></path>
                <path d="M132.177515,8.965936 C130.877862,8.965936 129.824338,10.020752 129.824338,11.322272 L129.824338,30.895936 C129.824338,32.197456 130.877862,33.252544 132.177515,33.252544 C133.477168,33.252544 134.530963,32.197456 134.530963,30.895936 L134.530963,11.322272 C134.530963,10.020752 133.477168,8.965936 132.177515,8.965936" id="Fill-10" fill="#1A1918"></path>
                <path d="M103.38112,10.152944 C102.961667,9.418816 102.182255,8.965664 101.338187,8.965664 C100.49439,8.965664 99.7149783,9.418816 99.295525,10.152944 L88.1148117,29.72688 C87.4709617,30.856224 87.8624333,32.296464 88.9903933,32.943008 C90.1180817,33.587648 91.5565567,33.195968 92.2023083,32.066352 L94.7358717,27.630304 L101.652233,27.630304 C102.951887,27.630304 104.00541,26.575216 104.00541,25.273968 C104.00541,23.97272 102.951887,22.917632 101.652233,22.917632 L97.4278167,22.917632 L101.338187,16.068944 L110.474065,32.066352 C110.90846,32.827136 111.703085,33.253632 112.5189,33.253632 C112.915262,33.253632 113.316242,33.15272 113.686252,32.943008 C114.814212,32.296464 115.205683,30.856224 114.559932,29.72688 L103.38112,10.152944" id="Fill-11" fill="#1A1918"></path>
                <g id="Group-15" transform="translate(0.000000, 8.704000)">
                    <mask id="mask-4" fill="white">
                        <use xlink:href="#path-3"></use>
                    </mask>
                    <g id="Clip-13"></g>
                    <path d="M35.5443233,0.50048 C34.3767,-0.069904 32.9662067,0.41616 32.3965217,1.585216 L24.97649,16.817216 L17.5564583,1.585216 C16.9867733,0.41616 15.5798117,-0.069904 14.4105583,0.50048 C13.241305,1.071136 12.7574667,2.481456 13.3255217,3.652144 L22.8610217,23.224448 C23.2557533,24.034736 24.0780883,24.548816 24.97649,24.548816 C25.8765217,24.548816 26.6974983,24.034736 27.0919583,23.224448 L36.62773,3.652144 C37.197415,2.481456 36.7119467,1.071136 35.5443233,0.50048" id="Fill-12" fill="#1A1918" mask="url(#mask-4)"></path>
                    <path d="M15.37579,15.035072 C14.2084383,14.464416 12.7998467,14.95048 12.22826,16.119536 L11.8897633,16.817216 L4.46973167,1.585488 C3.90004667,0.416432 2.49118333,-0.069632 1.32193,0.500752 C0.154306667,1.071136 -0.331161667,2.481728 0.238523333,3.650784 L9.77402333,23.224448 C10.168755,24.034736 10.9897317,24.548816 11.8897633,24.548816 C12.789795,24.548816 13.6105,24.034736 14.0052317,23.224448 L16.4591967,18.186464 C17.0291533,17.015776 16.545315,15.605456 15.37579,15.035072" id="Fill-14" fill="#1A1918" mask="url(#mask-4)"></path>
                </g>
            </g>
        </g>
    </g>
</svg>